<mxfile host="app.diagrams.net" modified="2024-03-14T23:18:42.684Z" agent="Mozilla/5.0 (Macintosh; Intel Mac OS X 10_15_7) AppleWebKit/537.36 (KHTML, like Gecko) Chrome/122.0.0.0 Safari/537.36" etag="GB346X9iX62JzvAAbiov" version="24.0.6" type="github">
  <diagram name="Page-1" id="RtdYG4Lg9o-OqF_THbdE">
    <mxGraphModel dx="2045" dy="1003" grid="1" gridSize="10" guides="1" tooltips="1" connect="1" arrows="1" fold="1" page="1" pageScale="1" pageWidth="850" pageHeight="1100" math="0" shadow="0">
      <root>
        <mxCell id="0" />
        <mxCell id="1" parent="0" />
        <mxCell id="c5vx2BbOQZ44IY8AYJup-1" value="" style="shape=cylinder3;whiteSpace=wrap;html=1;boundedLbl=1;backgroundOutline=1;size=15;rotation=90;fillColor=#fff2cc;strokeColor=#d6b656;" vertex="1" parent="1">
          <mxGeometry x="372.5" y="-10" width="60" height="445" as="geometry" />
        </mxCell>
        <mxCell id="c5vx2BbOQZ44IY8AYJup-3" value="Kafka Single Deployment" style="text;html=1;align=center;verticalAlign=middle;resizable=0;points=[];autosize=1;strokeColor=none;fillColor=none;" vertex="1" parent="1">
          <mxGeometry x="345" y="202.5" width="160" height="30" as="geometry" />
        </mxCell>
        <mxCell id="c5vx2BbOQZ44IY8AYJup-4" value="" style="shape=cylinder3;whiteSpace=wrap;html=1;boundedLbl=1;backgroundOutline=1;size=15;rotation=90;fillColor=#dae8fc;strokeColor=#6c8ebf;" vertex="1" parent="1">
          <mxGeometry x="352.5" y="350" width="60" height="445" as="geometry" />
        </mxCell>
        <mxCell id="c5vx2BbOQZ44IY8AYJup-5" value="Kafka Multiple Deployment A" style="text;html=1;align=center;verticalAlign=middle;resizable=0;points=[];autosize=1;strokeColor=none;fillColor=none;" vertex="1" parent="1">
          <mxGeometry x="315" y="562.5" width="180" height="30" as="geometry" />
        </mxCell>
        <mxCell id="c5vx2BbOQZ44IY8AYJup-6" value="" style="shape=cylinder3;whiteSpace=wrap;html=1;boundedLbl=1;backgroundOutline=1;size=15;rotation=90;fillColor=#dae8fc;strokeColor=#6c8ebf;" vertex="1" parent="1">
          <mxGeometry x="352.5" y="450" width="60" height="445" as="geometry" />
        </mxCell>
        <mxCell id="c5vx2BbOQZ44IY8AYJup-7" value="Kafka Multiple Deployment B" style="text;html=1;align=center;verticalAlign=middle;resizable=0;points=[];autosize=1;strokeColor=none;fillColor=none;" vertex="1" parent="1">
          <mxGeometry x="315" y="662.5" width="180" height="30" as="geometry" />
        </mxCell>
        <mxCell id="c5vx2BbOQZ44IY8AYJup-8" value="" style="shape=cylinder3;whiteSpace=wrap;html=1;boundedLbl=1;backgroundOutline=1;size=15;rotation=90;fillColor=#dae8fc;strokeColor=#6c8ebf;" vertex="1" parent="1">
          <mxGeometry x="355" y="612.5" width="60" height="440" as="geometry" />
        </mxCell>
        <mxCell id="c5vx2BbOQZ44IY8AYJup-9" value="Kafka Multiple Deployment N" style="text;html=1;align=center;verticalAlign=middle;resizable=0;points=[];autosize=1;strokeColor=none;fillColor=none;" vertex="1" parent="1">
          <mxGeometry x="310" y="822.5" width="180" height="30" as="geometry" />
        </mxCell>
        <mxCell id="c5vx2BbOQZ44IY8AYJup-10" value="" style="endArrow=none;dashed=1;html=1;dashPattern=1 3;strokeWidth=2;rounded=0;" edge="1" parent="1">
          <mxGeometry width="50" height="50" relative="1" as="geometry">
            <mxPoint x="394.5" y="792.5" as="sourcePoint" />
            <mxPoint x="394.5" y="722.5" as="targetPoint" />
          </mxGeometry>
        </mxCell>
        <mxCell id="c5vx2BbOQZ44IY8AYJup-12" value="" style="html=1;shadow=0;dashed=0;align=center;verticalAlign=middle;shape=mxgraph.arrows2.arrow;dy=0.6;dx=40;direction=south;notch=0;" vertex="1" parent="1">
          <mxGeometry x="361" y="340" width="70" height="120" as="geometry" />
        </mxCell>
        <mxCell id="c5vx2BbOQZ44IY8AYJup-15" value="" style="image;aspect=fixed;html=1;points=[];align=center;fontSize=12;image=img/lib/azure2/general/Service_Health.svg;" vertex="1" parent="1">
          <mxGeometry x="382" y="388" width="28" height="26.36" as="geometry" />
        </mxCell>
        <mxCell id="c5vx2BbOQZ44IY8AYJup-16" value="" style="shape=image;html=1;verticalAlign=top;verticalLabelPosition=bottom;labelBackgroundColor=#ffffff;imageAspect=0;aspect=fixed;image=https://cdn1.iconfinder.com/data/icons/iconoir-vol-4/24/running-128.png" vertex="1" parent="1">
          <mxGeometry x="291" y="376" width="48" height="48" as="geometry" />
        </mxCell>
        <mxCell id="c5vx2BbOQZ44IY8AYJup-19" value="" style="sketch=0;outlineConnect=0;fontColor=#232F3E;gradientColor=none;fillColor=#ED7100;strokeColor=none;dashed=0;verticalLabelPosition=bottom;verticalAlign=top;align=center;html=1;fontSize=12;fontStyle=0;aspect=fixed;pointerEvents=1;shape=mxgraph.aws4.auto_scaling2;" vertex="1" parent="1">
          <mxGeometry x="461" y="376" width="48" height="48" as="geometry" />
        </mxCell>
      </root>
    </mxGraphModel>
  </diagram>
</mxfile>
